<svg version="1" xmlns="http://www.w3.org/2000/svg" width="682.667" height="682.667" viewBox="0 0 512.000000 512.000000"><path d="M249.3 23.6c-2.3.8-7.6 3.6-11.8 6.2-4.1 2.6-18.7 11.6-32.3 20.1-13.6 8.5-26.9 16.9-29.7 18.7-2.7 1.7-28.6 17.9-57.5 35.9s-53.7 33.9-55.3 35.3c-1.5 1.4-3.7 4.6-4.9 7.1l-2.2 4.6v104c0 115.8-.4 109.5 6.7 116.2 1.7 1.7 22.6 15.1 46.2 29.8 23.7 14.8 45.9 28.7 49.5 31 3.6 2.3 12.1 7.6 19 11.9 6.9 4.2 25 15.6 40.3 25.1 15.3 9.6 29.7 18.1 32 18.9 5.4 1.8 11.8 1.3 16.6-1.2 8.9-4.7 180.9-112.7 183.8-115.5 7.1-6.7 6.7-.5 6.7-115.7s.4-109.1-6.7-115.7c-2.9-2.8-174.9-110.8-183.6-115.4-4.9-2.5-11.6-3-16.8-1.3zm17.5 54c5.9 3.6 18.1 11.2 27.2 16.9 9.1 5.7 23.5 14.7 32 20 8.5 5.3 26.9 16.8 40.8 25.5l25.3 15.8-68.1 42.5-68 42.6-33-20.7c-18.2-11.4-34.2-21.4-35.5-22.2-3.2-1.9-34.5-21.4-53.3-33.2l-14.2-9 46.2-28.9c25.5-15.8 47.7-29.7 49.3-30.8 1.7-1 9.3-5.8 17-10.6 7.7-4.8 16-10 18.4-11.6 2.5-1.6 4.6-2.9 4.8-2.9.2 0 5.2 3 11.1 6.6zM153.5 229.3c46.1 28.9 74.6 46.7 77.6 48.5l2.6 1.6v147.5l-3.6-1.9c-2-1.1-7.9-4.8-13.1-8.1-5.2-3.4-10.7-6.9-12.2-7.8-5.1-2.9-68.2-42.4-76.3-47.6-4.4-2.8-10.2-6.5-12.8-8.1-2.7-1.6-6.1-3.7-7.5-4.6-1.5-1-3.9-2.4-5.3-3.2l-2.7-1.5v-74l-.1-74 10.7 6.6c5.9 3.6 25.1 15.6 42.7 26.6zm258.3 40c0 40.4-.3 73.8-.6 74.4-.4.5-5.3 3.8-11 7.4-5.6 3.5-24.7 15.5-42.5 26.6-29.9 18.7-75.8 47.2-78.3 48.6-.8.5-1.1-19.2-1.1-73.1v-73.7l66.6-41.7c36.6-23 66.7-41.7 66.8-41.8 0 0 .1 33 .1 73.3z"/></svg>